<?xml version="1.0" standalone="no"?>
<!DOCTYPE svg PUBLIC "-//W3C//DTD SVG 20010904//EN"
 "http://www.w3.org/TR/2001/REC-SVG-20010904/DTD/svg10.dtd">
<svg version="1.0" xmlns="http://www.w3.org/2000/svg"
 width="1024.000000pt" height="1024.000000pt" viewBox="0 0 1024.000000 1024.000000"
 preserveAspectRatio="xMidYMid meet">
<metadata>
Created by potrace 1.14, written by Peter Selinger 2001-2017
</metadata>
<g transform="translate(0.000000,1024.000000) scale(0.100000,-0.100000)"
fill="#000000" stroke="none">
<path d="M4898 9825 c-2 -1 -50 -5 -108 -9 -58 -3 -116 -8 -130 -10 -14 -2
-54 -7 -90 -11 -217 -22 -525 -83 -720 -141 -46 -15 -91 -27 -100 -29 -23 -5
-152 -49 -275 -93 -298 -108 -631 -276 -952 -482 -85 -55 -342 -244 -388 -286
-12 -11 -50 -44 -85 -74 -36 -30 -103 -90 -149 -135 -224 -215 -377 -384 -545
-604 -75 -99 -256 -364 -256 -375 0 -2 -28 -51 -61 -107 -64 -108 -172 -319
-216 -424 -14 -33 -34 -80 -45 -105 -37 -82 -45 -104 -83 -210 -101 -281 -197
-650 -220 -840 -4 -30 -10 -73 -15 -95 -5 -22 -12 -73 -15 -114 -4 -41 -8 -88
-10 -105 -26 -199 -26 -780 0 -914 1 -9 6 -52 9 -94 4 -42 8 -85 10 -95 8 -44
19 -109 21 -123 16 -134 112 -523 175 -710 52 -153 101 -282 129 -343 17 -37
31 -70 31 -72 0 -3 13 -32 29 -65 16 -33 27 -60 24 -60 -3 0 -1 -6 5 -12 6 -7
36 -65 68 -128 63 -127 200 -358 289 -490 55 -81 202 -279 215 -290 3 -3 16
-18 28 -34 55 -71 218 -251 323 -355 228 -228 495 -446 738 -605 98 -64 416
-250 430 -252 3 0 51 -23 106 -50 55 -28 118 -57 140 -67 22 -9 67 -28 100
-42 33 -15 109 -44 168 -65 59 -22 112 -42 116 -45 8 -4 336 -102 371 -110 22
-5 54 -12 170 -39 58 -13 127 -27 153 -31 27 -3 56 -8 65 -10 22 -4 157 -23
207 -29 39 -5 79 -9 260 -25 92 -8 619 -6 665 3 14 2 57 7 95 11 143 13 235
24 245 30 3 1 32 6 65 10 66 7 116 16 215 39 36 9 88 20 115 27 28 6 113 29
190 51 77 22 147 42 155 43 8 2 47 16 85 30 39 14 97 35 129 46 89 30 234 93
396 172 80 39 147 71 150 71 13 2 305 176 383 228 49 32 92 58 97 58 5 0 10 3
12 8 2 4 57 47 123 96 133 100 139 104 163 127 9 9 53 47 97 84 135 113 397
376 500 500 47 57 87 104 110 129 65 72 300 416 367 536 14 25 40 70 58 100
41 69 138 263 180 360 18 41 43 100 57 130 25 56 81 202 88 230 2 8 11 35 20
60 66 179 167 578 191 757 3 26 8 57 10 68 9 41 22 157 29 247 4 40 9 84 11
98 9 45 11 552 3 650 -21 251 -25 282 -50 440 -28 177 -27 173 -50 268 -11 48
-24 105 -29 127 -10 47 -73 266 -100 345 -141 414 -291 727 -524 1090 -65 103
-244 351 -265 370 -3 3 -42 48 -85 100 -103 122 -266 291 -445 460 -251 236
-669 523 -1014 697 -127 63 -358 166 -437 195 -30 11 -62 22 -70 25 -8 3 -19
7 -25 9 -5 1 -48 16 -95 33 -186 66 -553 159 -735 186 -23 3 -50 7 -61 9 -19
4 -46 8 -152 21 -18 2 -67 7 -110 10 -42 4 -86 9 -97 12 -22 5 -572 13 -577 8z
m577 -418 c11 -3 58 -8 105 -12 47 -3 92 -8 100 -10 8 -2 33 -7 55 -10 23 -3
52 -8 65 -10 14 -3 45 -8 70 -11 58 -8 64 -9 141 -27 35 -9 96 -23 134 -31 39
-8 99 -25 135 -36 36 -12 75 -24 88 -26 40 -8 325 -110 427 -154 237 -100 487
-235 698 -374 l117 -78 59 -121 c110 -227 254 -618 335 -907 34 -121 100 -409
110 -480 2 -19 11 -75 20 -125 8 -49 18 -124 21 -165 4 -41 9 -83 11 -93 7
-38 18 -287 18 -407 0 -195 -19 -473 -39 -570 -2 -8 -6 -31 -9 -50 -4 -19 -8
-46 -11 -60 -3 -14 -7 -41 -10 -60 -17 -102 -123 -459 -165 -555 -10 -22 -33
-76 -52 -120 -44 -105 -158 -328 -164 -323 -2 3 0 27 5 54 16 83 30 196 37
294 5 61 4 363 0 450 -8 152 -20 306 -31 388 -3 23 -8 63 -11 90 -7 58 -18
131 -39 242 -20 114 -19 108 -55 250 -17 69 -33 132 -35 140 -2 8 -14 47 -26
85 -13 39 -23 72 -24 75 -3 13 -31 96 -66 193 -72 198 -182 425 -293 605 -28
46 -55 91 -61 100 -24 40 -84 124 -156 219 -192 252 -396 461 -639 651 -132
104 -133 105 -153 117 -9 6 -62 42 -119 80 -57 39 -118 78 -137 88 -19 11 -66
38 -105 61 -151 91 -468 239 -666 311 -41 15 -104 38 -140 52 -36 13 -72 25
-80 27 -8 2 -76 22 -150 44 -74 23 -193 55 -265 72 -134 33 -147 35 -203 46
-37 7 -35 16 6 21 15 2 65 10 112 18 47 8 108 17 135 20 28 3 64 8 80 10 17 2
73 7 125 11 52 3 96 8 98 9 5 5 576 -3 597 -8z m-1875 -391 c25 -3 72 -7 105
-11 33 -3 76 -7 95 -10 48 -6 131 -17 155 -20 17 -3 115 -19 235 -40 91 -16
333 -73 410 -97 36 -11 72 -21 80 -23 34 -9 156 -45 170 -51 8 -4 20 -8 25
-10 32 -8 241 -89 325 -126 25 -11 61 -27 80 -35 78 -33 340 -168 340 -175 0
-4 4 -8 10 -8 9 0 211 -118 220 -129 3 -3 38 -28 79 -55 40 -27 78 -55 85 -61
6 -6 20 -17 32 -25 65 -46 275 -233 370 -332 178 -183 367 -444 503 -690 33
-60 33 -70 3 -40 -112 108 -363 291 -517 376 -16 9 -51 29 -76 44 -251 148
-572 308 -794 395 -176 68 -384 136 -468 153 -10 1 -51 12 -90 23 -71 19 -312
65 -392 75 -22 3 -80 10 -130 17 -101 13 -488 18 -610 7 -130 -12 -135 -13
-430 -63 -11 -1 -67 -15 -125 -30 -58 -15 -112 -28 -120 -30 -55 -12 -318
-107 -420 -152 -241 -105 -610 -322 -800 -470 -30 -24 -59 -47 -65 -51 -200
-150 -504 -436 -700 -657 -48 -55 -92 -104 -96 -109 -11 -13 41 124 94 244 48
110 151 314 207 409 21 36 38 69 39 74 0 4 5 13 11 20 6 6 45 64 86 127 68
103 181 260 225 315 110 134 174 204 307 339 86 87 198 193 247 234 50 42 97
82 105 89 42 38 79 67 120 95 25 18 47 34 50 37 8 9 57 43 188 130 134 89 256
160 427 248 l120 61 120 -4 c66 -2 140 -6 165 -8z m4784 -1096 c12 -14 44 -52
71 -85 28 -33 58 -68 68 -79 9 -11 17 -23 17 -27 0 -4 19 -31 42 -60 65 -82
208 -302 279 -429 60 -106 189 -362 189 -374 0 -2 13 -33 29 -68 74 -163 206
-574 235 -728 2 -14 11 -54 19 -90 9 -36 18 -85 21 -110 3 -25 7 -54 10 -65 4
-22 22 -147 30 -213 21 -170 29 -591 14 -790 -6 -91 -7 -94 -73 -210 -159
-277 -380 -584 -615 -852 -128 -146 -406 -417 -496 -484 -42 -32 -56 -43 -91
-76 -13 -11 -25 -20 -28 -20 -3 0 -17 -10 -29 -22 -13 -13 -54 -43 -91 -68
-37 -25 -72 -50 -78 -55 -12 -11 -254 -161 -292 -181 -279 -150 -606 -269
-870 -319 -70 -13 -215 -35 -280 -42 -82 -9 -495 -10 -575 -1 -30 4 -84 10
-120 14 -36 3 -72 8 -80 10 -8 1 -24 3 -34 3 -26 1 -15 11 20 17 49 8 295 81
359 105 33 13 62 24 65 24 3 0 28 11 55 24 28 12 73 32 100 43 28 12 55 25 60
29 6 4 40 22 75 40 36 17 88 46 115 64 125 80 311 201 320 207 50 36 311 232
320 241 7 7 37 32 66 57 123 103 335 309 446 435 120 136 303 386 390 530 105
177 172 305 238 460 45 105 132 338 140 373 2 9 16 60 30 112 42 155 86 365
99 475 10 76 18 140 21 165 23 156 23 678 1 845 -2 17 -7 62 -11 100 -9 99
-11 111 -40 290 -14 88 -30 176 -35 195 -5 19 -11 46 -14 60 -20 110 -121 490
-155 585 l-11 30 26 -30 c14 -16 36 -41 48 -55z m-4009 -164 c49 -7 179 -20
188 -18 4 1 7 -1 7 -5 0 -5 -62 -24 -138 -45 -195 -52 -425 -141 -545 -210
-26 -15 -51 -28 -56 -28 -11 0 -267 -162 -386 -245 -55 -38 -116 -80 -135 -93
-19 -13 -47 -34 -62 -48 -15 -13 -30 -24 -33 -24 -5 0 -7 -1 -135 -106 -149
-123 -156 -129 -330 -304 -193 -194 -213 -216 -306 -335 -211 -270 -401 -584
-509 -845 -15 -36 -35 -83 -45 -105 -10 -22 -21 -51 -25 -65 -4 -14 -19 -61
-35 -105 -56 -160 -136 -485 -155 -630 -3 -27 -10 -79 -15 -115 -19 -138 -25
-245 -25 -520 0 -248 8 -460 19 -479 2 -3 7 -37 10 -76 22 -239 87 -549 183
-875 30 -102 57 -194 60 -205 4 -15 -1 -12 -20 10 -14 17 -39 46 -56 65 -93
103 -348 462 -419 590 -16 30 -45 82 -64 115 -139 248 -274 581 -371 915 -26
88 -81 331 -93 410 -3 25 -8 52 -9 60 -12 67 -32 227 -42 337 -9 106 -10 590
0 685 5 58 14 81 63 165 125 212 353 533 505 710 137 159 177 203 318 343 176
175 233 226 388 346 104 82 347 254 357 254 2 0 40 22 83 48 99 61 272 149
388 197 50 20 99 41 110 46 104 45 416 130 565 154 146 23 146 23 235 30 44 4
81 8 83 10 5 4 414 -3 447 -9z m1040 -401 c65 -10 279 -55 325 -70 10 -3 27
-8 37 -10 106 -24 485 -198 544 -251 8 -8 19 -14 22 -14 10 0 100 -65 182
-131 106 -85 275 -254 350 -349 61 -77 185 -253 185 -263 0 -2 18 -37 41 -78
62 -113 158 -341 174 -413 2 -10 11 -42 19 -70 12 -43 35 -147 38 -173 1 -5 5
-24 9 -43 24 -102 34 -500 16 -635 -30 -233 -82 -423 -174 -634 -250 -578
-736 -1025 -1343 -1235 -73 -25 -249 -70 -320 -82 -172 -29 -219 -32 -425 -29
-229 3 -234 3 -405 36 -356 68 -696 225 -980 453 -86 69 -266 247 -325 321
-22 28 -42 52 -45 55 -11 11 -90 119 -90 123 0 3 -18 31 -39 63 -60 91 -182
343 -206 424 -4 14 -13 39 -21 55 -14 31 -69 244 -79 305 -3 19 -7 46 -10 60
-21 117 -28 472 -12 615 18 159 77 396 137 544 62 156 161 353 195 391 8 9 15
19 15 23 0 6 60 98 71 107 3 3 32 39 64 80 65 82 260 280 321 326 22 16 41 31
44 34 29 31 217 153 341 222 141 79 404 175 554 204 11 2 40 8 65 14 61 13 94
19 165 26 33 4 62 8 64 10 7 7 440 -4 496 -11z m-2913 -1762 c-6 -32 -14 -78
-17 -103 -3 -25 -8 -61 -11 -80 -13 -94 -19 -421 -9 -580 6 -94 16 -240 20
-275 9 -93 17 -159 20 -175 2 -10 6 -45 10 -77 3 -32 8 -65 10 -73 2 -8 7 -28
10 -45 6 -39 24 -134 30 -163 10 -51 68 -279 80 -317 8 -22 30 -92 50 -155 20
-63 40 -124 44 -135 5 -11 30 -74 57 -140 51 -130 196 -420 244 -490 17 -24
30 -48 30 -53 0 -6 3 -12 8 -14 4 -1 23 -28 42 -58 19 -30 38 -59 43 -65 4 -5
36 -48 70 -95 34 -47 66 -90 72 -96 5 -7 44 -53 85 -103 77 -93 279 -297 385
-388 142 -123 467 -356 555 -400 8 -4 53 -29 100 -56 47 -27 120 -67 163 -88
43 -21 84 -42 90 -47 7 -5 28 -15 47 -22 19 -7 58 -23 85 -36 142 -62 203 -87
345 -137 243 -87 458 -148 728 -207 69 -16 64 -24 -18 -35 -30 -4 -64 -9 -75
-11 -52 -10 -260 -35 -340 -41 -185 -15 -670 -7 -785 11 -14 2 -52 7 -85 10
-59 6 -87 10 -155 22 -19 3 -48 8 -65 11 -159 23 -470 107 -698 188 -121 43
-145 52 -222 85 -22 10 -67 29 -100 43 -124 53 -476 241 -483 259 -2 4 -7 8
-11 8 -15 0 -206 132 -223 154 -65 80 -285 616 -365 886 -13 47 -33 114 -44
150 -11 36 -21 74 -23 85 -3 11 -18 76 -35 145 -32 133 -31 132 -61 315 -20
121 -24 154 -35 255 -3 30 -7 76 -10 101 -19 169 -19 510 0 699 4 36 8 85 11
110 2 25 7 58 10 73 3 16 7 38 9 50 33 244 119 547 217 765 15 35 28 66 28 69
0 8 129 263 152 301 11 18 23 31 26 28 2 -3 0 -31 -6 -63z m6631 -2020 c-22
-63 -132 -307 -181 -403 -56 -110 -71 -137 -130 -240 -27 -47 -193 -301 -202
-310 -3 -3 -30 -39 -60 -80 -49 -67 -91 -120 -185 -230 -97 -113 -347 -362
-475 -472 -237 -204 -577 -427 -874 -572 l-119 -58 -119 6 c-65 4 -136 9 -156
11 -20 2 -64 7 -97 10 -33 3 -69 7 -80 9 -11 2 -51 7 -90 11 -38 4 -72 8 -75
10 -3 1 -27 6 -55 10 -166 24 -268 45 -465 95 -107 28 -199 51 -205 53 -5 2
-30 9 -55 16 -25 7 -83 26 -130 43 -47 17 -114 41 -150 53 -60 21 -91 35 -207
86 -23 11 -44 19 -47 19 -8 0 -172 80 -180 87 -4 4 -12 8 -19 9 -37 5 -497
288 -550 338 -7 6 -46 38 -87 71 -153 121 -320 281 -418 400 -37 44 -69 82
-72 85 -17 14 -160 210 -160 219 0 5 -3 11 -7 13 -16 6 -193 305 -193 324 0 3
21 -15 48 -40 26 -24 58 -54 72 -65 14 -11 32 -26 40 -33 200 -173 793 -508
1190 -674 230 -95 634 -222 796 -250 16 -2 66 -11 111 -19 45 -9 101 -18 125
-21 24 -2 57 -7 73 -9 144 -21 585 -28 730 -12 191 21 243 28 273 36 18 5 35
10 37 10 5 -1 75 11 105 16 60 12 267 71 375 108 215 73 498 205 653 303 29
19 54 34 57 34 4 0 236 154 260 172 6 4 55 42 110 85 55 42 102 79 105 82 3 3
27 24 55 46 147 118 469 440 595 596 36 43 42 47 33 22z"/>
<path d="M4470 6036 l0 -132 400 1 c219 0 402 4 406 8 9 8 1 23 -75 152 l-59
100 -336 2 -336 1 0 -132z"/>
<path d="M5243 6110 c17 -30 69 -120 115 -200 47 -80 92 -158 100 -175 27 -52
82 -135 90 -135 4 0 22 26 40 58 18 31 43 75 56 98 53 91 94 171 99 195 9 34
-43 84 -143 138 -102 54 -170 71 -288 74 l-101 3 32 -56z"/>
<path d="M5674 5693 c-65 -114 -133 -232 -150 -262 -17 -31 -41 -74 -54 -96
-75 -130 -73 -123 -53 -133 26 -13 368 -16 392 -3 10 6 27 32 37 58 10 27 22
54 27 61 5 6 7 12 3 12 -3 0 -1 11 4 25 30 79 29 264 -1 375 -13 45 -71 170
-79 170 -4 0 -60 -93 -126 -207z"/>
<path d="M4503 5852 c-12 -2 -24 -10 -27 -19 -10 -24 -7 -612 2 -629 7 -12 10
-13 19 -2 9 12 104 175 225 388 14 25 49 84 77 133 73 127 75 122 -44 125 -55
1 -129 3 -165 5 -36 1 -75 1 -87 -1z"/>
<path d="M4687 5413 c-13 -21 -66 -110 -118 -198 l-94 -160 -3 -487 -4 -488
64 -1 c209 -2 339 -1 345 4 3 4 6 179 8 390 1 211 4 388 8 394 3 5 25 11 49
12 36 1 61 4 86 10 3 1 -114 227 -152 296 -104 187 -151 265 -158 265 -4 0
-18 -17 -31 -37z"/>
<path d="M5058 5132 c-54 -2 -68 -6 -68 -19 0 -8 30 -72 66 -142 37 -69 94
-178 127 -241 33 -63 63 -119 67 -125 4 -5 42 -77 85 -160 127 -242 169 -320
186 -344 17 -22 21 -23 200 -22 162 1 237 5 246 15 3 3 -25 55 -139 256 -313
554 -322 571 -312 587 5 8 31 26 58 41 27 15 57 32 65 39 94 71 122 96 112
102 -18 11 -522 21 -693 13z"/>
</g>
</svg>
