<?xml version="1.0" encoding="utf-8"?>
<svg fill="#efefef" viewBox="0 0 50 50" width="500px" height="500px" xmlns="http://www.w3.org/2000/svg">
  <path fill="none" stroke-miterlimit="10" stroke-width="2" d="M25 13A12 12 0 1 0 25 37A12 12 0 1 0 25 13Z" style="stroke: rgb(255, 255, 255);"/>
  <path stroke-miterlimit="10" stroke-width="2" d="M25 3A22 22 0 1 0 25 47A22 22 0 1 0 25 3Z" fill="none" style="stroke: rgb(255, 255, 255);"/>
  <path fill="none" stroke-linecap="round" stroke-miterlimit="10" stroke-width="2" d="M16.107 4.909C16.107 4.909 37 4.554 37 25M33.893 45.091C33.893 45.091 13 45.446 13 25M3.155 22.656c0 0 9.845-19.343 27.83-8.055M46.845 27.344c0 0-9.408 19.343-27.584 8.193M12.047 42.746c0 0-10.422-18 6.967-28.145M37.953 7.254c0 0 10.234 18.121-6.968 28.147" style="stroke: rgb(255, 255, 255);"/>
  <g transform="matrix(0.002578, 0, 0, -0.002578, 13.483704, 38.268497)" fill="#000000" stroke="none" style="">
    <path d="M3232 6883 l3 -248 773 -3 c731 -2 772 -1 771 15 0 10 -9 32 -20 48 -10 17 -23 39 -28 50 -5 11 -21 37 -35 58 -14 21 -26 40 -26 43 0 5 -72 129 -100 174 -6 8 -21 36 -35 63 l-25 47 -640 0 -640 0 2 -247z" style="fill: rgb(255, 255, 255);"/>
    <path d="M4650 7122 c0 -11 29 -67 76 -147 13 -22 28 -49 34 -60 6 -11 22 -40 37 -65 14 -25 33 -58 42 -75 9 -16 28 -48 42 -70 14 -22 29 -47 32 -55 4 -8 17 -31 28 -50 12 -19 32 -53 43 -75 22 -39 58 -100 84 -140 6 -11 15 -27 19 -35 4 -8 32 -58 63 -110 31 -52 59 -102 63 -110 33 -69 77 -99 85 -58 2 9 23 47 48 85 24 37 44 70 44 75 0 4 14 27 30 51 17 25 30 47 30 50 0 3 21 41 47 84 107 179 163 292 163 326 0 32 -44 82 -128 144 -96 72 -100 74 -192 118 -41 20 -83 41 -92 46 -25 13 -132 45 -198 59 -77 16 -400 26 -400 12z" style="fill: rgb(255, 255, 255);"/>
    <path d="M5733 6608 c-5 -7 -13 -20 -17 -28 -3 -8 -15 -28 -26 -45 -11 -16 -24 -40 -30 -53 -5 -12 -26 -48 -46 -79 -19 -31 -40 -65 -45 -77 -5 -12 -15 -30 -21 -41 -34 -53 -65 -107 -101 -175 -22 -41 -51 -91 -64 -110 -12 -19 -23 -38 -23 -42 0 -4 -13 -27 -30 -51 -16 -25 -30 -48 -30 -52 0 -4 -18 -37 -40 -72 -23 -35 -45 -74 -51 -86 -5 -12 -19 -38 -31 -57 -11 -19 -31 -55 -44 -79 -13 -24 -28 -49 -33 -55 -4 -6 -23 -38 -41 -71 -18 -33 -39 -72 -48 -86 -26 -47 -14 -55 95 -62 54 -4 224 -7 379 -7 330 0 295 -13 362 140 79 181 102 296 102 505 0 151 -6 206 -40 350 -25 109 -35 135 -89 245 -46 93 -68 114 -88 88z" style="fill: rgb(255, 255, 255);"/>
    <path d="M3323 6533 c-40 -2 -66 -9 -75 -20 -10 -13 -14 -113 -16 -492 -1 -262 1 -534 5 -606 7 -116 10 -130 26 -130 12 0 29 20 49 55 29 53 90 159 109 190 5 8 23 40 39 70 48 86 74 132 101 175 14 22 29 47 33 55 4 8 12 24 19 35 7 11 37 63 67 115 30 52 60 104 67 115 7 11 16 29 22 41 8 18 75 132 101 174 5 8 16 29 25 45 8 17 28 53 45 80 42 71 44 75 32 87 -11 11 -522 20 -649 11z" style="fill: rgb(255, 255, 255);"/>
    <path d="M3680 5758 c-10 -24 -18 -36 -62 -105 -16 -23 -28 -44 -28 -47 0 -3 -12 -22 -26 -43 -14 -21 -30 -47 -35 -58 -5 -11 -18 -33 -29 -50 -11 -16 -24 -39 -30 -50 -5 -11 -14 -27 -20 -35 -27 -42 -130 -220 -130 -224 0 -3 -13 -24 -29 -48 -15 -24 -33 -59 -39 -78 -7 -24 -12 -329 -14 -940 l-3 -905 379 -3 c271 -1 383 1 392 9 12 10 14 137 14 749 0 578 3 740 13 748 6 6 65 12 129 14 64 1 121 8 127 13 6 7 -2 32 -24 75 -86 169 -118 230 -150 285 -19 33 -46 83 -60 110 -14 28 -35 66 -47 85 -11 19 -31 55 -45 80 -13 25 -40 72 -59 105 -19 33 -39 69 -44 80 -6 11 -14 27 -20 35 -26 40 -100 173 -100 179 0 9 -34 41 -44 41 -3 0 -11 -10 -16 -22z" style="fill: rgb(255, 255, 255);"/>
    <path d="M4393 5171 c-102 -3 -176 -10 -183 -17 -10 -10 38 -114 133 -284 17 -30 53 -98 80 -150 27 -52 65 -124 84 -160 19 -36 57 -108 85 -160 28 -52 70 -131 93 -175 23 -44 60 -115 83 -157 23 -43 67 -126 98 -185 31 -59 64 -122 74 -140 10 -17 48 -87 83 -155 36 -68 78 -148 95 -178 16 -30 48 -91 71 -135 23 -44 49 -86 58 -93 19 -14 443 -16 676 -3 144 8 171 17 144 51 -7 8 -23 35 -35 60 -13 25 -32 61 -43 80 -12 19 -31 53 -42 75 -12 22 -27 47 -33 55 -6 8 -28 47 -49 85 -20 39 -41 77 -46 85 -28 47 -99 171 -99 174 0 4 -80 145 -100 176 -5 8 -21 38 -36 65 -30 59 -40 75 -77 132 -15 24 -27 48 -27 55 0 6 -6 19 -14 27 -7 9 -30 48 -51 86 -20 39 -46 86 -57 105 -11 19 -31 55 -45 80 -13 25 -34 61 -45 80 -46 79 -69 130 -66 146 2 9 28 30 58 47 183 98 166 88 260 158 104 78 166 136 157 145 -4 4 -51 11 -105 15 -134 11 -969 18 -1179 10z" style="fill: rgb(255, 255, 255);"/>
  </g>
</svg>